<svg preserveAspectRatio="none" width="100%" height="100%" overflow="visible" style="display: block;" viewBox="0 0 16 16" fill="none" xmlns="http://www.w3.org/2000/svg">
<g id="Frame">
<path id="Vector" d="M8.33333 11.3333L8 10.6667L7.66667 11.3333H8.33333Z" stroke="var(--stroke-0, white)" stroke-width="0.666667" stroke-linecap="round" stroke-linejoin="round"/>
<path id="Vector_2" d="M10 14.6667C10.1768 14.6667 10.3464 14.5964 10.4714 14.4714C10.5964 14.3464 10.6667 14.1768 10.6667 14V13.3333C10.9178 13.3332 11.1638 13.2621 11.3763 13.1283C11.5888 12.9945 11.7592 12.8034 11.8679 12.577C11.9765 12.3506 12.0191 12.0981 11.9905 11.8486C11.962 11.5991 11.8636 11.3627 11.7067 11.1667C12.4706 10.4282 12.9966 9.47836 13.2172 8.43895C13.4377 7.39955 13.3428 6.31795 12.9445 5.33287C12.5462 4.34779 11.8628 3.50412 10.9818 2.91006C10.1009 2.316 9.06255 1.99861 8 1.99861C6.93745 1.99861 5.89912 2.316 5.01816 2.91006C4.1372 3.50412 3.45376 4.34779 3.05549 5.33287C2.65722 6.31795 2.56227 7.39955 2.78282 8.43895C3.00336 9.47836 3.52935 10.4282 4.29333 11.1667C4.13638 11.3627 4.03798 11.5991 4.00946 11.8486C3.98094 12.0981 4.02346 12.3506 4.13214 12.577C4.24081 12.8034 4.41121 12.9945 4.62372 13.1283C4.83623 13.2621 5.0822 13.3332 5.33333 13.3333V14C5.33333 14.1768 5.40357 14.3464 5.5286 14.4714C5.65362 14.5964 5.82319 14.6667 6 14.6667H10Z" stroke="var(--stroke-0, white)" stroke-width="0.666667" stroke-linecap="round" stroke-linejoin="round"/>
<path id="Vector_3" d="M10 8.66667C10.3682 8.66667 10.6667 8.36819 10.6667 8C10.6667 7.63181 10.3682 7.33333 10 7.33333C9.63181 7.33333 9.33333 7.63181 9.33333 8C9.33333 8.36819 9.63181 8.66667 10 8.66667Z" stroke="var(--stroke-0, white)" stroke-width="0.666667" stroke-linecap="round" stroke-linejoin="round"/>
<path id="Vector_4" d="M6 8.66667C6.36819 8.66667 6.66667 8.36819 6.66667 8C6.66667 7.63181 6.36819 7.33333 6 7.33333C5.63181 7.33333 5.33333 7.63181 5.33333 8C5.33333 8.36819 5.63181 8.66667 6 8.66667Z" stroke="var(--stroke-0, white)" stroke-width="0.666667" stroke-linecap="round" stroke-linejoin="round"/>
</g>
</svg>
