<svg preserveAspectRatio="none" width="100%" height="100%" overflow="visible" style="display: block;" viewBox="0 0 16 20" fill="none" xmlns="http://www.w3.org/2000/svg">
<g id="DESIGNED_BY_FREEPIK" clip-path="url(#clip0_568_268)">
<path id="Vector" d="M4.50742 0.854284C4.90628 1.3276 5.16377 1.93817 5.16377 2.62827C5.16377 3.31837 4.91007 3.92124 4.5011 4.39328C4.48091 4.4138 4.4645 4.43689 4.44304 4.45741C4.38877 4.51385 4.32944 4.56388 4.27138 4.61647C3.81319 4.99872 3.23257 5.24628 2.57621 5.24628C1.90849 5.24628 1.30009 4.98974 0.836857 4.57158C0.817924 4.55233 0.797728 4.53566 0.778795 4.51642C0.716945 4.45998 0.665194 4.39328 0.610918 4.33171C0.234774 3.86737 0 3.2786 0 2.62827C0 1.93048 0.258757 1.29297 0.686652 0.826065L0.691701 0.820934C0.728305 0.765777 0.785106 0.717034 0.848217 0.664443C1.31019 0.251411 1.91354 0 2.57747 0C3.26286 0 3.88766 0.26039 4.34711 0.693946C4.3509 0.697794 4.35595 0.702925 4.35973 0.706773C4.41022 0.742689 4.45693 0.79528 4.50615 0.854284H4.50742Z" fill="url(#paint0_linear_568_268)"/>
<path id="Vector_2" d="M2.74787 6.69444C10.0145 6.69444 15.9142 12.6359 16 20C14.325 19.941 12.6084 19.8807 12.0417 19.8127C12.0076 19.8063 11.9672 19.8063 11.9331 19.7986C11.1619 19.696 10.3982 19.5921 9.63458 19.4689C8.26885 19.2419 6.90312 18.9264 5.61818 18.4928C5.44904 18.4389 5.28621 18.3761 5.12464 18.3145C5.0224 18.2735 4.93531 18.2324 4.84064 18.1914C4.08709 17.8335 3.45346 17.3884 2.92206 16.8663C2.39571 16.2981 1.95014 15.6182 1.59798 14.8063C1.57147 14.7588 1.55128 14.7037 1.53108 14.6485C1.47681 14.4972 1.42253 14.3394 1.36825 14.1816C0.942884 12.8758 0.631114 11.4879 0.415273 10.1C0.272641 9.22779 0.157778 8.35426 0.0568002 7.48202C0.0429157 7.42687 0.0366046 7.37171 0.0366046 7.31784C0.0239823 7.20752 0.0113601 7.09593 0 6.98433C0.886084 6.79449 1.80625 6.69444 2.74787 6.69444Z" fill="url(#paint1_linear_568_268)"/>
</g>
<defs>
<linearGradient id="paint0_linear_568_268" x1="0.611609" y1="4.3281" x2="4.60766" y2="0.973208" gradientUnits="userSpaceOnUse">
<stop stop-color="#95F0B2"/>
<stop offset="1" stop-color="#4476AF"/>
</linearGradient>
<linearGradient id="paint1_linear_568_268" x1="3.41667" y1="17.4657" x2="11.9158" y2="10.3302" gradientUnits="userSpaceOnUse">
<stop offset="0.48" stop-color="#E5AA57"/>
<stop offset="0.73" stop-color="#DA5965"/>
</linearGradient>
<clipPath id="clip0_568_268">
<rect width="16" height="20" fill="white"/>
</clipPath>
</defs>
</svg>
